<svg viewBox="0 0 640 220" width="100%" xmlns="http://www.w3.org/2000/svg"><rect x="55.0" y="68.8" width="40" height="91.2" rx="4" fill="#d63d78"/><line x1="75.0" y1="68.8" x2="75.0" y2="56.8" stroke="#ffb6c1" stroke-width="1.5" stroke-linecap="round"/><ellipse cx="75.0" cy="51.8" rx="4" ry="5.5" fill="#FFD700" opacity="0.95"/><ellipse cx="75.0" cy="49.8" rx="2" ry="3" fill="#fff" opacity="0.5"/><text x="75.0" y="43.8" text-anchor="middle" fill="#d63d78" font-size="11" font-weight="600" font-family="sans-serif">31</text><text x="75.0" y="184.0" text-anchor="middle" fill="#ffb6c1" font-size="10" font-family="sans-serif">Mar 10</text><rect x="125.0" y="60.0" width="40" height="100.0" rx="4" fill="#d63d78"/><line x1="145.0" y1="60.0" x2="145.0" y2="48.0" stroke="#ffb6c1" stroke-width="1.5" stroke-linecap="round"/><ellipse cx="145.0" cy="43.0" rx="4" ry="5.5" fill="#FFD700" opacity="0.95"/><ellipse cx="145.0" cy="41.0" rx="2" ry="3" fill="#fff" opacity="0.5"/><text x="145.0" y="35.0" text-anchor="middle" fill="#d63d78" font-size="11" font-weight="600" font-family="sans-serif">34</text><text x="145.0" y="184.0" text-anchor="middle" fill="#ffb6c1" font-size="10" font-family="sans-serif">Mar 17</text><rect x="195.0" y="60.0" width="40" height="100.0" rx="4" fill="#d63d78"/><line x1="215.0" y1="60.0" x2="215.0" y2="48.0" stroke="#ffb6c1" stroke-width="1.5" stroke-linecap="round"/><ellipse cx="215.0" cy="43.0" rx="4" ry="5.5" fill="#FFD700" opacity="0.95"/><ellipse cx="215.0" cy="41.0" rx="2" ry="3" fill="#fff" opacity="0.5"/><text x="215.0" y="35.0" text-anchor="middle" fill="#d63d78" font-size="11" font-weight="600" font-family="sans-serif">34</text><text x="215.0" y="184.0" text-anchor="middle" fill="#ffb6c1" font-size="10" font-family="sans-serif">Mar 24</text><rect x="265.0" y="92.4" width="40" height="67.6" rx="4" fill="#FF6B9D"/><line x1="285.0" y1="92.4" x2="285.0" y2="80.4" stroke="#ffb6c1" stroke-width="1.5" stroke-linecap="round"/><ellipse cx="285.0" cy="75.4" rx="4" ry="5.5" fill="#FFD700" opacity="0.95"/><ellipse cx="285.0" cy="73.4" rx="2" ry="3" fill="#fff" opacity="0.5"/><text x="285.0" y="67.4" text-anchor="middle" fill="#d63d78" font-size="11" font-weight="600" font-family="sans-serif">23</text><text x="285.0" y="184.0" text-anchor="middle" fill="#ffb6c1" font-size="10" font-family="sans-serif">Mar 31</text><rect x="335.0" y="124.7" width="40" height="35.3" rx="4" fill="#ffb6c1"/><line x1="355.0" y1="124.7" x2="355.0" y2="112.7" stroke="#ffb6c1" stroke-width="1.5" stroke-linecap="round"/><ellipse cx="355.0" cy="107.7" rx="4" ry="5.5" fill="#FFD700" opacity="0.95"/><ellipse cx="355.0" cy="105.7" rx="2" ry="3" fill="#fff" opacity="0.5"/><text x="355.0" y="99.7" text-anchor="middle" fill="#d63d78" font-size="11" font-weight="600" font-family="sans-serif">12</text><text x="355.0" y="184.0" text-anchor="middle" fill="#ffb6c1" font-size="10" font-family="sans-serif">Apr 07</text><rect x="405.0" y="92.4" width="40" height="67.6" rx="4" fill="#FF6B9D"/><line x1="425.0" y1="92.4" x2="425.0" y2="80.4" stroke="#ffb6c1" stroke-width="1.5" stroke-linecap="round"/><ellipse cx="425.0" cy="75.4" rx="4" ry="5.5" fill="#FFD700" opacity="0.95"/><ellipse cx="425.0" cy="73.4" rx="2" ry="3" fill="#fff" opacity="0.5"/><text x="425.0" y="67.4" text-anchor="middle" fill="#d63d78" font-size="11" font-weight="600" font-family="sans-serif">23</text><text x="425.0" y="184.0" text-anchor="middle" fill="#ffb6c1" font-size="10" font-family="sans-serif">Apr 14</text><rect x="475.0" y="68.8" width="40" height="91.2" rx="4" fill="#d63d78"/><line x1="495.0" y1="68.8" x2="495.0" y2="56.8" stroke="#ffb6c1" stroke-width="1.5" stroke-linecap="round"/><ellipse cx="495.0" cy="51.8" rx="4" ry="5.5" fill="#FFD700" opacity="0.95"/><ellipse cx="495.0" cy="49.8" rx="2" ry="3" fill="#fff" opacity="0.5"/><text x="495.0" y="43.8" text-anchor="middle" fill="#d63d78" font-size="11" font-weight="600" font-family="sans-serif">31</text><text x="495.0" y="184.0" text-anchor="middle" fill="#ffb6c1" font-size="10" font-family="sans-serif">Apr 21</text><rect x="545.0" y="101.2" width="40" height="58.8" rx="4" fill="#FF6B9D"/><line x1="565.0" y1="101.2" x2="565.0" y2="89.2" stroke="#ffb6c1" stroke-width="1.5" stroke-linecap="round"/><ellipse cx="565.0" cy="84.2" rx="4" ry="5.5" fill="#FFD700" opacity="0.95"/><ellipse cx="565.0" cy="82.2" rx="2" ry="3" fill="#fff" opacity="0.5"/><text x="565.0" y="76.2" text-anchor="middle" fill="#d63d78" font-size="11" font-weight="600" font-family="sans-serif">20</text><text x="565.0" y="184.0" text-anchor="middle" fill="#ffb6c1" font-size="10" font-family="sans-serif">Apr 28</text><text x="320" y="216" text-anchor="middle" fill="#ffc0d0" font-size="9" font-family="sans-serif">updated May 04, 2026 UTC</text></svg>
