<svg viewBox="0 0 640 220" width="100%" xmlns="http://www.w3.org/2000/svg" role="img">
<title>Weekly commit candle chart</title>
<desc>Candle chart showing weekly GitHub commits</desc>
<rect x="35.5" y="162.1" width="18" height="27.9" rx="3" fill="#ffd6e7"/><line x1="44.5" y1="162.1" x2="44.5" y2="152.1" stroke="#ffb6c1" stroke-width="1.2"/><circle cx="44.5" cy="149.1" r="3" fill="#FFD700" opacity="0.9"/><text x="44.5" y="204.0" text-anchor="middle" fill="#ffb6c1" font-size="9" font-family="sans-serif">3</text><rect x="64.5" y="186.0" width="18" height="4.0" rx="3" fill="#ffd6e7"/><line x1="73.5" y1="186.0" x2="73.5" y2="176.0" stroke="#ffb6c1" stroke-width="1.2"/><circle cx="73.5" cy="173.0" r="3" fill="#FFD700" opacity="0.9"/><rect x="93.5" y="115.7" width="18" height="74.3" rx="3" fill="#FF6B9D"/><line x1="102.5" y1="115.7" x2="102.5" y2="105.7" stroke="#ffb6c1" stroke-width="1.2"/><circle cx="102.5" cy="102.7" r="3" fill="#FFD700" opacity="0.9"/><text x="102.5" y="204.0" text-anchor="middle" fill="#ffb6c1" font-size="9" font-family="sans-serif">8</text><rect x="122.5" y="125.0" width="18" height="65.0" rx="3" fill="#FF6B9D"/><line x1="131.5" y1="125.0" x2="131.5" y2="115.0" stroke="#ffb6c1" stroke-width="1.2"/><circle cx="131.5" cy="112.0" r="3" fill="#FFD700" opacity="0.9"/><text x="131.5" y="204.0" text-anchor="middle" fill="#ffb6c1" font-size="9" font-family="sans-serif">7</text><rect x="151.5" y="125.0" width="18" height="65.0" rx="3" fill="#FF6B9D"/><line x1="160.5" y1="125.0" x2="160.5" y2="115.0" stroke="#ffb6c1" stroke-width="1.2"/><circle cx="160.5" cy="112.0" r="3" fill="#FFD700" opacity="0.9"/><text x="160.5" y="204.0" text-anchor="middle" fill="#ffb6c1" font-size="9" font-family="sans-serif">7</text><rect x="180.5" y="186.0" width="18" height="4.0" rx="3" fill="#ffd6e7"/><line x1="189.5" y1="186.0" x2="189.5" y2="176.0" stroke="#ffb6c1" stroke-width="1.2"/><circle cx="189.5" cy="173.0" r="3" fill="#FFD700" opacity="0.9"/><rect x="209.5" y="162.1" width="18" height="27.9" rx="3" fill="#ffd6e7"/><line x1="218.5" y1="162.1" x2="218.5" y2="152.1" stroke="#ffb6c1" stroke-width="1.2"/><circle cx="218.5" cy="149.1" r="3" fill="#FFD700" opacity="0.9"/><text x="218.5" y="204.0" text-anchor="middle" fill="#ffb6c1" font-size="9" font-family="sans-serif">3</text><rect x="238.5" y="171.4" width="18" height="18.6" rx="3" fill="#ffd6e7"/><line x1="247.5" y1="171.4" x2="247.5" y2="161.4" stroke="#ffb6c1" stroke-width="1.2"/><circle cx="247.5" cy="158.4" r="3" fill="#FFD700" opacity="0.9"/><text x="247.5" y="204.0" text-anchor="middle" fill="#ffb6c1" font-size="9" font-family="sans-serif">2</text><rect x="267.5" y="69.3" width="18" height="120.7" rx="3" fill="#d63d78"/><line x1="276.5" y1="69.3" x2="276.5" y2="59.3" stroke="#ffb6c1" stroke-width="1.2"/><circle cx="276.5" cy="56.3" r="3" fill="#FFD700" opacity="0.9"/><text x="276.5" y="204.0" text-anchor="middle" fill="#ffb6c1" font-size="9" font-family="sans-serif">13</text><rect x="296.5" y="180.7" width="18" height="9.3" rx="3" fill="#ffd6e7"/><line x1="305.5" y1="180.7" x2="305.5" y2="170.7" stroke="#ffb6c1" stroke-width="1.2"/><circle cx="305.5" cy="167.7" r="3" fill="#FFD700" opacity="0.9"/><text x="305.5" y="204.0" text-anchor="middle" fill="#ffb6c1" font-size="9" font-family="sans-serif">1</text><rect x="325.5" y="171.4" width="18" height="18.6" rx="3" fill="#ffd6e7"/><line x1="334.5" y1="171.4" x2="334.5" y2="161.4" stroke="#ffb6c1" stroke-width="1.2"/><circle cx="334.5" cy="158.4" r="3" fill="#FFD700" opacity="0.9"/><text x="334.5" y="204.0" text-anchor="middle" fill="#ffb6c1" font-size="9" font-family="sans-serif">2</text><rect x="354.5" y="171.4" width="18" height="18.6" rx="3" fill="#ffd6e7"/><line x1="363.5" y1="171.4" x2="363.5" y2="161.4" stroke="#ffb6c1" stroke-width="1.2"/><circle cx="363.5" cy="158.4" r="3" fill="#FFD700" opacity="0.9"/><text x="363.5" y="204.0" text-anchor="middle" fill="#ffb6c1" font-size="9" font-family="sans-serif">2</text><rect x="383.5" y="134.3" width="18" height="55.7" rx="3" fill="#ffb6c1"/><line x1="392.5" y1="134.3" x2="392.5" y2="124.3" stroke="#ffb6c1" stroke-width="1.2"/><circle cx="392.5" cy="121.3" r="3" fill="#FFD700" opacity="0.9"/><text x="392.5" y="204.0" text-anchor="middle" fill="#ffb6c1" font-size="9" font-family="sans-serif">6</text><rect x="412.5" y="125.0" width="18" height="65.0" rx="3" fill="#FF6B9D"/><line x1="421.5" y1="125.0" x2="421.5" y2="115.0" stroke="#ffb6c1" stroke-width="1.2"/><circle cx="421.5" cy="112.0" r="3" fill="#FFD700" opacity="0.9"/><text x="421.5" y="204.0" text-anchor="middle" fill="#ffb6c1" font-size="9" font-family="sans-serif">7</text><rect x="441.5" y="186.0" width="18" height="4.0" rx="3" fill="#ffd6e7"/><line x1="450.5" y1="186.0" x2="450.5" y2="176.0" stroke="#ffb6c1" stroke-width="1.2"/><circle cx="450.5" cy="173.0" r="3" fill="#FFD700" opacity="0.9"/><rect x="470.5" y="60.0" width="18" height="130.0" rx="3" fill="#d63d78"/><line x1="479.5" y1="60.0" x2="479.5" y2="50.0" stroke="#ffb6c1" stroke-width="1.2"/><circle cx="479.5" cy="47.0" r="3" fill="#FFD700" opacity="0.9"/><text x="479.5" y="204.0" text-anchor="middle" fill="#ffb6c1" font-size="9" font-family="sans-serif">14</text><rect x="499.5" y="69.3" width="18" height="120.7" rx="3" fill="#d63d78"/><line x1="508.5" y1="69.3" x2="508.5" y2="59.3" stroke="#ffb6c1" stroke-width="1.2"/><circle cx="508.5" cy="56.3" r="3" fill="#FFD700" opacity="0.9"/><text x="508.5" y="204.0" text-anchor="middle" fill="#ffb6c1" font-size="9" font-family="sans-serif">13</text><rect x="528.5" y="125.0" width="18" height="65.0" rx="3" fill="#FF6B9D"/><line x1="537.5" y1="125.0" x2="537.5" y2="115.0" stroke="#ffb6c1" stroke-width="1.2"/><circle cx="537.5" cy="112.0" r="3" fill="#FFD700" opacity="0.9"/><text x="537.5" y="204.0" text-anchor="middle" fill="#ffb6c1" font-size="9" font-family="sans-serif">7</text><rect x="557.5" y="78.6" width="18" height="111.4" rx="3" fill="#d63d78"/><line x1="566.5" y1="78.6" x2="566.5" y2="68.6" stroke="#ffb6c1" stroke-width="1.2"/><circle cx="566.5" cy="65.6" r="3" fill="#FFD700" opacity="0.9"/><text x="566.5" y="204.0" text-anchor="middle" fill="#ffb6c1" font-size="9" font-family="sans-serif">12</text><rect x="586.5" y="115.7" width="18" height="74.3" rx="3" fill="#FF6B9D"/><line x1="595.5" y1="115.7" x2="595.5" y2="105.7" stroke="#ffb6c1" stroke-width="1.2"/><circle cx="595.5" cy="102.7" r="3" fill="#FFD700" opacity="0.9"/><text x="595.5" y="204.0" text-anchor="middle" fill="#ffb6c1" font-size="9" font-family="sans-serif">8</text><text x="320" y="218" text-anchor="middle" fill="#ffb6c1" font-size="10" font-family="sans-serif">last 20 weeks · updated May 04, 2026</text>
</svg>
